<svg width="64" height="64" viewBox="0 0 64 64" fill="none" xmlns="http://www.w3.org/2000/svg">
<path d="M24.139 37.0713L15.5039 45.7064C18.2427 51.5031 24.0344 55.5846 30.7934 55.8603V44.3255C27.1893 43.7767 24.3815 40.7673 24.139 37.0713Z" fill="white"/>
<path d="M50.1595 38.1719L50.1365 13.9564H50.1339V11.0771L39.8525 21.3586V36.5562C39.8525 40.4845 36.9579 43.7466 33.1904 44.3286V55.8659C42.6143 55.4728 50.1595 47.6877 50.1595 38.1719Z" fill="white"/>
<path d="M24.1226 33.4905V29.9298V25.4961L13.8207 35.798L13.8182 38.1718C13.8182 38.8329 13.8539 39.4864 13.9254 40.127L9.58613 44.4663L9.58103 46.5849L1.7959 54.37V55.8173L24.1226 33.4905Z" fill="#007CCD"/>
<path d="M25.2923 11.6514H24.3147H24.307H24.1309H24.1232H23.8144H23.6306H23.0103H22.8725H22.8291H22.6913H15.2814H15.0976H13.8392H13.6554H12.6778C13.4104 12.8102 13.8392 14.1809 13.8392 15.646V16.4909L13.8239 28.6919L9.57908 32.9367L9.58929 35.0348L1.79395 42.8302V44.2723L24.1232 21.9482V21.9456V16.4143L24.1309 15.646C24.1309 14.1783 24.5572 12.8102 25.2923 11.6514Z" fill="#00B1BF"/>
</svg>
